<?xml version="1.0" encoding="utf-8"?>
<!-- Generator: Adobe Illustrator 25.4.1, SVG Export Plug-In . SVG Version: 6.00 Build 0)  -->
<svg version="1.1" id="Layer_1" xmlns="http://www.w3.org/2000/svg" xmlns:xlink="http://www.w3.org/1999/xlink" x="0px" y="0px"
	 viewBox="0 0 360 360" style="enable-background:new 0 0 360 360;" xml:space="preserve">
<style type="text/css">
	.st0{fill:#F7F3E8;}
	.st1{fill:#F3EE7D;stroke:#181824;stroke-width:3;stroke-miterlimit:10;}
	.st2{fill:#171724;}
	.st3{fill:#191924;}
	.st4{fill:none;stroke:#191924;stroke-width:4;stroke-miterlimit:10;}
	.st5{fill:#8CD4DC;}
	.st6{fill:none;stroke:#8CD4DC;stroke-width:5;stroke-miterlimit:10;}
	.st7{fill:none;stroke:#EF4940;stroke-width:8;stroke-miterlimit:10;}
	.st8{fill:#181824;}
	.st9{font-family:'LilitaOne';}
	.st10{font-size:36.1864px;}
	.st11{font-size:35.167px;}
</style>
<rect x="-5.88" y="-5.88" class="st0" width="371.77" height="371.77"/>
<g>
	<g>
		
			<ellipse transform="matrix(0.0677 -0.9977 0.9977 0.0677 15.8028 428.3461)" class="st1" cx="237.1" cy="205.72" rx="39.53" ry="39.98"/>
		<polygon class="st2" points="245.12,227.58 224.5,218.54 226.73,196.13 248.72,191.33 260.09,210.77 		"/>
		<path class="st3" d="M223.02,170.56l-1.58,23.21l-22.56,5.67l-1.05-1.68c2.41-12.72,10.77-23.14,21.91-28.52L223.02,170.56z"/>
		<path class="st3" d="M277.03,207.98c-0.38,5.53-1.85,10.71-4.21,15.36l-7.82-12.47l11.33-13.56
			C277.02,200.74,277.27,204.32,277.03,207.98z"/>
		<path class="st3" d="M259.44,238.47c-6.75,4.54-14.92,7.07-23.62,6.78L246,233.07L259.44,238.47z"/>
		<path class="st3" d="M220.27,222.11l-1.28,18.84c-10.51-5.36-18.25-15.19-20.88-26.82l0.57-0.68L220.27,222.11z"/>
		<path class="st3" d="M269.12,181.28l-17.13,2.9l-9.71-18.57C253.33,167.04,262.84,172.91,269.12,181.28z"/>
	</g>
	<line class="st4" x1="240.46" y1="160.28" x2="241.79" y2="140.71"/>
	<line class="st4" x1="233.14" y1="268.18" x2="234.47" y2="248.6"/>
	<line class="st4" x1="193.31" y1="201.45" x2="173.73" y2="200.12"/>
	<line class="st4" x1="301.2" y1="208.77" x2="281.62" y2="207.44"/>
	<line class="st4" x1="208.36" y1="171.1" x2="195.46" y2="156.32"/>
	<line class="st4" x1="279.47" y1="252.57" x2="266.57" y2="237.79"/>
	<line class="st4" x1="204.12" y1="233.55" x2="189.34" y2="246.45"/>
	<line class="st4" x1="285.59" y1="162.43" x2="270.81" y2="175.34"/>
	<line class="st4" x1="223.52" y1="162.44" x2="217.34" y2="143.81"/>
	<line class="st4" x1="257.59" y1="265.07" x2="251.41" y2="246.45"/>
	<line class="st4" x1="195.46" y1="218.39" x2="176.84" y2="224.57"/>
	<line class="st4" x1="298.09" y1="184.32" x2="279.47" y2="190.5"/>
	<line class="st4" x1="197.9" y1="184.6" x2="180.36" y2="175.81"/>
	<line class="st4" x1="294.57" y1="233.08" x2="277.03" y2="224.29"/>
	<line class="st4" x1="217.62" y1="244.01" x2="208.83" y2="261.55"/>
	<line class="st4" x1="266.1" y1="147.34" x2="257.31" y2="164.88"/>
</g>
<path class="st5" d="M314.77,273.07H49.95c-3.69-4.82-5.73-10.16-5.73-15.77c0-18.64,22.56-34.22,52.76-38.15
	c-0.54-2.57-0.83-5.21-0.83-7.93c0-23.7,21.83-42.92,48.76-42.92c22.28,0,41.06,13.14,46.89,31.08c3.52-1.47,7.27-2.26,11.15-2.26
	c15.69,0,29.15,12.92,34.84,31.32c5.35-3.11,11.61-4.89,18.31-4.89c18.23,0,33.26,13.24,35.28,30.29
	C303.72,258.97,312.17,265.63,314.77,273.07z"/>
<line class="st6" x1="68.41" y1="285.22" x2="79.99" y2="302.73"/>
<line class="st6" x1="265.87" y1="285.22" x2="277.46" y2="302.73"/>
<line class="st6" x1="246.13" y1="285.22" x2="257.71" y2="302.73"/>
<line class="st6" x1="226.38" y1="285.22" x2="237.97" y2="302.73"/>
<line class="st6" x1="206.63" y1="285.22" x2="218.22" y2="302.73"/>
<line class="st6" x1="186.89" y1="285.22" x2="198.47" y2="302.73"/>
<line class="st6" x1="167.14" y1="285.22" x2="178.73" y2="302.73"/>
<line class="st6" x1="147.39" y1="285.22" x2="158.98" y2="302.73"/>
<line class="st6" x1="127.65" y1="285.22" x2="139.23" y2="302.73"/>
<line class="st6" x1="107.9" y1="285.22" x2="119.49" y2="302.73"/>
<line class="st6" x1="285.62" y1="285.22" x2="297.21" y2="302.73"/>
<line class="st6" x1="88.15" y1="285.22" x2="99.74" y2="302.73"/>
<rect x="16.93" y="16.93" class="st7" width="326.13" height="326.13"/>
<text transform="matrix(1 0 0 1 50.7334 125.3438)" class="st8 st9 st10">WEATHER</text>
<text transform="matrix(1 0 0 1 48.9556 90.5977)" class="st8 st9 st11">SOCCER MOM</text>
</svg>
